<svg width="512" height="512" xmlns="http://www.w3.org/2000/svg" fill="none">
 <defs>
  <linearGradient y2="0.90551" x2="-0.09702" y1="1.01029" x1="1.00987" id="svg_6">
   <stop offset="0.01563" stop-opacity="0.99219" stop-color="#e9c6ff"/>
   <stop stop-opacity="0.98828" stop-color="#bab2ff" offset="0.52604"/>
   <stop stop-opacity="0.98438" stop-color="#bfe9ff" offset="0.98438"/>
  </linearGradient>
 </defs>
 <g>
  <title>Layer 1</title>
  <path id="svg_1" fill="url(#svg_6)" d="m258.637,20.6697c-1.043,-2.4547 -4.551,-2.4574 -5.553,0.014c-19.665,48.4793 -32.484,81.9563 -54.916,130.0583c-0.52,1.114 -0.315,2.446 0.531,3.339c10.314,10.896 22.327,22.986 38.719,36.236c2.789,2.255 0.162,6.748 -3.046,5.144c-16.925,-8.464 -30.2,-16.989 -41.084,-25.712c-1.528,-1.225 -3.802,-0.752 -4.652,1.012c-30.2,62.64 -77.094,151.495 -169.3349,317.598c-1.4777,2.661 1.4749,5.643 4.1196,4.136c70.7893,-40.329 126.7723,-65.635 179.0013,-76.001c1.678,-0.333 2.747,-1.985 2.396,-3.658c-1.962,-9.344 -3.008,-19.378 -2.918,-29.736l0.1,-2.5c1.2,-49.1 26.8,-86.9 57,-84.3c30.3,2.6 53.8,44.5 52.6,93.6c-0.176,8.101 -1.05,15.969 -2.485,23.4c-0.319,1.65 0.736,3.262 2.383,3.601c51.697,10.632 107.143,35.868 177.079,75.709c2.63,1.498 5.606,-1.387 4.166,-4.049c-12.766,-23.591 -24.388,-45.175 -35.542,-65.902c-0.199,-0.369 -0.471,-0.69 -0.802,-0.948c-15.755,-12.261 -32.175,-27.419 -59.403,-44.011c-3.058,-1.863 -1.082,-6.635 2.305,-5.472c11.977,4.115 22.223,8.506 31.168,13.148c2.706,1.404 5.725,-1.759 4.283,-4.446c-121.709,-226.721 -134.728,-262.826 -176.115,-360.2603z"/>
 </g>
</svg>